<svg fill="white" width="751" height="229" viewBox="0 0 751 229" xmlns="http://www.w3.org/2000/svg">
<path fill="white" d="M42.1923 0C55.8353 0 62.4042 7.1445 65.5625 7.1445C67.2045 7.1445 67.9625 6.3786 67.9625 1.27539H70.8677L72.7628 36.3606H69.8571C67.7098 14.5437 58.4883 5.231 44.9715 5.231C26.0228 5.231 15.5381 26.282 15.5381 53.5837C15.5381 80.8855 26.0228 100.916 44.5923 100.916C60.383 100.916 71.6261 86.7546 74.6579 63.4076H77.6897C74.2787 88.9237 63.2883 107.167 41.5605 107.167C16.1695 107.167 0 84.4586 0 53.5837C0 22.7089 16.8009 0 42.1923 0Z"/>
<path fill="white" d="M102.162 47.4616H102.545C107.404 40.5008 114.052 34.4257 122.489 34.4257C131.95 34.4257 136.169 41.007 136.169 52.651V90.7473C136.169 98.8474 137.448 100.746 145.246 100.746V103.783H115.841V100.746C123.001 100.746 124.152 98.8474 124.152 90.7473V52.651C124.152 46.0696 122.106 42.5258 117.12 42.5258C112.134 42.5258 106.765 46.8286 102.162 52.7778V90.7473C102.162 98.8474 103.313 100.746 110.472 100.746V103.783H81.0675V100.746C88.8662 100.746 90.1443 98.8474 90.1443 90.7473V18.0986C90.1443 9.87248 90.2723 8.35287 83.113 11.8975L81.7069 9.23943L91.2951 4.42957L100.372 0L102.162 1.77232L102.162 47.4616Z"/>
<path fill="white" d="M206.046 95.982C204.255 102.464 201.952 107.167 194.531 107.167C186.983 107.167 183.655 102.464 183.655 94.5841V94.0756H183.4C180.969 98.0158 175.339 107.167 164.207 107.167C155.252 107.167 149.75 100.939 149.75 91.1515C149.75 74.8818 164.08 69.7975 177.642 63.6963L183.655 60.9004V54.9265C183.655 45.3928 182.504 39.419 173.931 39.419C168.942 39.419 165.103 41.7073 165.103 45.5202C165.103 48.5707 167.15 49.9695 167.15 53.4012C167.15 56.4518 164.464 58.4855 160.369 58.4855C155.891 58.4855 153.332 55.3076 153.332 49.7149C153.332 40.5632 162.417 34.9704 174.827 34.9704C187.622 34.9704 195.683 41.3254 195.683 55.1803V95.982C195.683 99.9222 196.067 101.956 198.497 101.956C200.673 101.956 201.568 100.049 203.103 95.982H206.046ZM183.655 89.1178V65.6036L178.026 68.273C168.174 72.8481 161.648 78.9492 161.648 87.9745C161.648 94.8379 165.103 98.2695 170.093 98.2695C175.083 98.2695 178.794 95.3463 183.655 89.1178Z"/>
<path fill="white" d="M302.877 100.77V103.783H273.955V100.77C280.835 100.77 281.982 98.8862 281.982 90.8496V52.6761C281.982 46.0207 280.071 42.8812 275.484 42.8812C270.26 42.8812 265.164 47.276 260.45 53.1784V90.8497C260.45 98.8862 261.597 100.77 268.477 100.77V103.783H240.574V100.77C247.454 100.77 248.601 98.8862 248.601 90.8497V52.6761C248.601 46.0207 246.69 42.8812 242.103 42.8812C236.879 42.8812 231.656 47.276 227.069 53.1784V90.8497C227.069 98.8862 228.088 100.77 234.968 100.77V103.783H206.046V100.77C213.819 100.77 215.092 98.8862 215.092 90.8497V53.0526C215.092 44.8903 215.22 43.2577 208.085 46.7745L206.684 44.1373L216.239 39.491L225.285 34.9704L227.069 36.7288V47.904H227.451C232.293 40.9978 238.408 34.9704 246.817 34.9704C254.717 34.9704 258.921 39.6168 260.068 47.904H260.45C265.674 40.9978 272.299 34.9704 280.708 34.9704C290.136 34.9704 293.831 41.5001 293.831 53.0526V90.8497C293.831 98.8862 295.105 100.77 302.877 100.77Z"/>
<path fill="white" d="M362.552 66.9299C362.552 88.9094 352.481 106.721 338.76 106.721C332.089 106.721 326.676 103.563 322.647 96.994H322.396V118.974C322.396 127.185 323.654 128.954 331.333 128.954V131.985H301.751V128.954C309.43 128.954 310.689 127.185 310.689 118.974V53.1607C310.689 44.9496 310.815 43.3072 304.017 46.7185L302.632 44.0656L320.759 34.9704L322.396 36.7394V49.7502H322.899C328.312 40.5286 334.858 34.9704 343.166 34.9704C356.887 34.9704 362.552 49.6237 362.552 66.9299ZM349.083 70.5927C349.083 52.2767 346.188 42.4232 338.005 42.4232C331.837 42.4232 325.92 48.3601 322.396 54.55V79.1833C322.396 93.3313 328.438 101.542 336.243 101.542C346.188 101.542 349.083 85.8777 349.083 70.5927Z"/>
<path fill="white" d="M397.456 100.746V103.783H367.055V100.746C374.946 100.746 376.24 98.8474 376.24 90.7473V52.651C376.24 44.4241 376.369 42.7785 369.125 46.3232L367.702 43.6651L377.404 38.982L386.589 34.4257L388.4 36.198V90.7473C388.4 98.8474 389.564 100.746 397.456 100.746ZM374.171 7.46712C374.171 3.29027 377.534 0 381.673 0C385.942 0 389.306 3.29027 389.306 7.46712C389.306 11.5172 385.942 14.8083 381.673 14.8083C377.534 14.8083 374.171 11.5172 374.171 7.46712Z"/>
<path fill="white" d="M400.834 71.069C400.834 50.6045 411.784 34.9704 429.608 34.9704C447.307 34.9704 458.256 50.6045 458.256 71.069C458.256 91.6608 447.307 107.167 429.608 107.167C411.784 107.167 400.834 91.6608 400.834 71.069ZM444.505 69.7975C442.723 49.4603 436.612 39.5463 426.808 40.4359C417.131 41.3254 412.929 52.1297 414.585 72.4669C416.494 92.6776 422.478 102.592 432.282 101.829C441.959 100.939 446.161 90.1347 444.505 69.7975Z"/>
<path fill="white" d="M483.485 47.904H483.861C488.634 40.9978 495.166 34.9704 503.456 34.9704C512.75 34.9704 516.895 41.5001 516.895 53.0526V90.8497C516.895 98.8862 518.151 100.77 525.813 100.77V103.783H496.924V100.77C503.957 100.77 505.088 98.8862 505.088 90.8497V53.0526C505.088 46.523 503.078 43.007 498.18 43.007C493.282 43.007 488.006 47.276 483.485 53.1784V90.8497C483.485 98.8862 484.615 100.77 491.649 100.77V103.783H462.76V100.77C470.422 100.77 471.678 98.8862 471.678 90.8497V53.0526C471.678 44.8903 471.803 43.2577 464.77 46.7745L463.388 44.1373L472.808 39.491L481.727 34.9704L483.485 36.7288V47.904Z"/>
<path fill="white" d="M637.187 16.3104V90.8571C637.187 98.5119 638.84 100.771 650.792 100.771V103.783H609.342V100.771C621.166 100.771 622.819 98.5119 622.819 90.8571V53.2074H585.184V90.8571C585.184 98.5119 586.964 100.771 598.788 100.771V103.783H557.339V100.771C569.164 100.771 570.943 98.5119 570.943 90.8571V16.3104C570.943 8.65559 569.164 6.39621 557.339 6.39621V3.38424H598.788V6.39621C586.964 6.39621 585.184 8.65559 585.184 16.3104V48.0618H622.819V16.3104C622.819 8.65559 621.166 6.39621 609.342 6.39621V3.38424H650.792V6.39621C638.84 6.39621 637.187 8.65559 637.187 16.3104Z"/>
<path fill="white" d="M684.57 100.746V103.783H655.295V100.746C662.894 100.746 664.14 98.8474 664.14 90.7473V52.651C664.14 44.4241 664.264 42.7785 657.288 46.3232L655.918 43.6651L665.261 38.982L674.106 34.4257L675.849 36.198V90.7473C675.849 98.8474 676.971 100.746 684.57 100.746ZM662.147 7.46712C662.147 3.29027 665.386 0 669.372 0C673.483 0 676.722 3.29027 676.722 7.46712C676.722 11.5172 673.483 14.8083 669.372 14.8083C665.386 14.8083 662.147 11.5172 662.147 7.46712Z"/>
<path fill="white" d="M718.348 100.746V103.783H687.948V100.746C695.839 100.746 697.133 98.8474 697.133 90.7473V18.0986C697.133 9.87247 697.261 8.35288 690.017 11.8975L688.595 9.23945L698.296 4.42957L707.482 0L709.292 1.77232V90.7473C709.292 98.8474 710.457 100.746 718.348 100.746Z"/>
<path fill="white" d="M751 100.746V103.783H721.726V100.746C729.325 100.746 730.571 98.8474 730.571 90.7473V18.0986C730.571 9.87247 730.695 8.35288 723.719 11.8975L722.349 9.23945L731.691 4.42957L740.536 0L742.28 1.77232V90.7473C742.28 98.8474 743.401 100.746 751 100.746Z"/>
<path fill="white" d="M205.736 206.176L227.366 137.575C229.643 130.261 229.517 128.243 217.753 128.243V125.217H245.454V128.243C237.738 128.243 235.082 129.883 232.552 137.575L203.585 229H197.261L167.282 137.575C164.626 129.883 161.969 128.243 154.253 128.243V125.217H192.581V128.243C180.817 128.243 180.69 130.261 183.094 137.575L205.356 206.176H205.736Z"/>
<path fill="white" d="M279.232 199.765C276.627 219.34 268.438 229 256.9 229C242.755 229 234.195 215.145 234.195 193.41C234.195 173.836 242.88 156.803 258.016 156.803C272.16 156.803 279.108 170.785 279.108 189.342H246.229V189.851C246.229 207.138 251.316 219.594 261.118 219.594C267.073 219.594 272.781 214.764 276.255 199.765H279.232ZM246.354 184.131H267.197C267.197 171.929 264.964 162.141 257.52 162.141C250.2 162.141 246.974 171.293 246.354 184.131Z"/>
<path fill="white" d="M305.587 169.737H305.963C310.736 162.83 317.268 156.803 325.557 156.803C334.852 156.803 338.997 163.333 338.997 174.885V212.682C338.997 220.719 340.253 222.602 347.915 222.602V225.616H319.026V222.602C326.06 222.602 327.19 220.719 327.19 212.682V174.885C327.19 168.355 325.181 164.839 320.282 164.839C315.383 164.839 310.108 169.108 305.587 175.011V212.682C305.587 220.719 306.717 222.602 313.751 222.602V225.616H284.862V222.602C292.524 222.602 293.78 220.719 293.78 212.682V174.885C293.78 166.723 293.905 165.09 286.872 168.607L285.49 165.97L294.91 161.324L303.828 156.803L305.587 158.561V169.737Z"/>
<path fill="white" d="M387.322 198.439C387.196 218.304 384.544 229 372.548 229C362.573 229 356.638 222.506 356.638 205.442V164.568H346.789V159.219C358.406 158.837 363.33 154.253 364.467 141.01H368.381V159.219H383.029V164.568H368.381V201.368C368.381 213.847 369.139 221.487 376.084 221.487C381.892 221.487 384.165 215.248 384.418 198.439H387.322Z"/>
<path fill="white" d="M430.533 215.952H430.154C425.225 223.046 419.285 229 410.818 229C401.592 229 397.294 222.539 397.294 210.758V173.64C397.294 165.405 396.915 163.886 389.206 165.913L388.448 162.998L398.559 160.212L407.405 157.931L409.175 159.578V210.758C409.175 217.345 411.197 221.019 416.125 221.019C421.18 221.019 425.857 216.712 430.533 210.758V173.64C430.533 165.405 430.027 163.886 422.318 165.913L421.559 162.998L431.796 160.212L440.643 157.931L442.412 159.578V210.885C442.412 219.118 442.16 220.639 448.984 217.218L450.375 219.879L432.302 229L430.533 227.226V215.952Z"/>
<path fill="white" d="M501.042 164.463C501.042 168.23 498.652 171.495 494.376 171.495C490.854 171.495 489.345 169.988 488.213 167.979C487.333 166.472 486.578 165.844 485.321 165.844C481.547 165.844 478.655 169.737 474.504 177.02V212.682C474.504 220.719 476.265 222.602 487.71 222.602V225.616H453.753V222.602C461.424 222.602 462.682 220.719 462.682 212.682V174.885C462.682 166.723 462.808 165.09 455.765 168.607L454.381 165.97L463.814 161.324L472.744 156.803L474.504 158.561V169.862H474.882C478.151 163.961 483.559 156.803 491.735 156.803C497.142 156.803 501.042 159.817 501.042 164.463Z"/>
<path fill="white" d="M549.457 199.765C546.786 219.34 538.393 229 526.566 229C512.069 229 503.294 215.145 503.294 193.41C503.294 173.836 512.195 156.803 527.711 156.803C542.209 156.803 549.331 170.785 549.331 189.342H515.63V189.851C515.63 207.138 520.844 219.594 530.891 219.594C536.995 219.594 542.844 214.764 546.405 199.765H549.457ZM515.757 184.131H537.122C537.122 171.929 534.833 162.141 527.202 162.141C519.699 162.141 516.392 171.293 515.757 184.131Z"/>
<path fill="white" d="M557.465 202.181H560.39C562.169 214.51 568.78 223.788 578.822 223.788C584.288 223.788 586.831 220.484 586.831 215.272C586.831 207.9 581.237 203.197 572.594 195.571C563.948 187.944 557.339 182.478 557.339 172.692C557.339 163.285 564.076 156.803 573.992 156.803C583.017 156.803 586.322 161.887 588.483 161.887C590.009 161.887 590.009 160.617 590.009 158.074H592.933V179.047H590.009C588.23 169.641 582.636 162.141 574.5 162.141C569.161 162.141 567.254 165.827 567.254 168.878C567.254 174.725 572.084 178.92 579.712 185.529C591.281 195.444 596.747 200.909 596.747 211.586C596.747 223.535 588.483 229 579.203 229C569.161 229 565.093 223.916 562.424 223.916C560.771 223.916 560.39 225.186 560.39 227.729H557.465V202.181Z"/>
</svg>
