<svg width="4063" height="2705" viewBox="0 0 4063 2705" fill="none" xmlns="http://www.w3.org/2000/svg">
<mask id="mask0_1614_59" style="mask-type:luminance" maskUnits="userSpaceOnUse" x="13" y="1920" width="4037" height="777">
<path d="M4049.47 1920.94H13.0645V2696.48H4049.47V1920.94Z" fill="white"/>
</mask>
<g mask="url(#mask0_1614_59)">
<path d="M3761.04 2286.99C3754.84 2286.99 3753.28 2283.89 3753.28 2279.24V1951.96H3792.05C3849.43 1951.96 3875.79 1990.74 3875.79 2122.57C3875.79 2254.41 3849.43 2286.99 3796.71 2286.99H3761.04ZM3630.78 1975.22V2642.18C3609.07 2688.72 3607.53 2691.83 3607.53 2693.37C3607.53 2694.92 3609.07 2696.48 3610.62 2696.48H3773.44C3775 2696.48 3776.55 2694.92 3776.55 2693.37C3776.55 2691.83 3775 2688.72 3753.28 2642.18V2318.01H3781.2C3787.4 2318.01 3792.05 2319.57 3795.16 2330.43L3900.6 2642.18C3905.25 2654.6 3923.87 2696.48 3970.37 2696.48H4046.37C4047.91 2696.48 4049.47 2694.92 4049.47 2693.37C4049.47 2691.83 4049.47 2691.83 3903.71 2286.99C3968.83 2252.87 4006.04 2200.13 4006.04 2117.92C4006.04 2000.04 3933.17 1920.94 3812.22 1920.94H3610.62C3609.07 1920.94 3607.53 1922.5 3607.53 1924.04C3607.53 1925.59 3609.07 1928.69 3630.78 1975.22ZM2335.98 2400.22L2410.4 2063.64L2481.74 2386.27C2483.29 2392.46 2480.18 2400.22 2472.43 2400.22H2335.98ZM2221.22 2693.37C2221.22 2694.92 2222.77 2696.48 2224.33 2696.48H2326.66C2328.22 2696.48 2329.77 2694.92 2329.77 2693.37C2329.77 2691.83 2328.22 2688.72 2292.55 2598.76L2326.66 2448.3H2481.74C2489.48 2448.3 2494.13 2449.85 2497.24 2462.27L2534.46 2646.84C2525.15 2675.79 2520.5 2691.3 2520.5 2693.37C2520.5 2694.92 2522.05 2696.48 2523.61 2696.48H2687.97C2689.52 2696.48 2691.08 2694.92 2691.08 2693.37C2691.08 2691.83 2689.52 2690.27 2660.06 2642.18L2514.3 1961.27C2508.1 1933.36 2503.45 1920.94 2467.78 1920.94H2380.94C2379.39 1920.94 2377.83 1922.5 2377.83 1924.04C2377.83 1926.12 2383.01 1946.28 2393.34 1984.54L2261.54 2594.11C2222.77 2688.72 2221.22 2691.83 2221.22 2693.37ZM1117.14 2642.18V1975.22C1138.85 1928.69 1140.4 1925.59 1140.4 1924.04C1140.4 1922.5 1138.85 1920.94 1137.3 1920.94H969.829C968.278 1920.94 966.728 1922.5 966.728 1924.04C966.728 1925.59 968.278 1928.69 989.987 1975.22V2642.18C968.278 2688.72 966.728 2691.83 966.728 2693.37C966.728 2694.92 968.278 2696.48 969.829 2696.48H1137.3C1138.85 2696.48 1140.4 2694.92 1140.4 2693.37C1140.4 2691.83 1138.85 2688.72 1117.14 2642.18ZM166.581 2286.99C160.379 2286.99 158.828 2283.89 158.828 2279.24V1951.96H197.594C254.97 1951.96 281.331 1990.74 281.331 2122.57C281.331 2254.41 254.97 2286.99 202.246 2286.99H166.581ZM36.3245 1975.22V2642.18C14.6152 2688.72 13.0645 2691.83 13.0645 2693.37C13.0645 2694.92 14.6152 2696.48 16.1658 2696.48H178.986C180.537 2696.48 182.088 2694.92 182.088 2693.37C182.088 2691.83 180.537 2688.72 158.828 2642.18V2318.01H186.74C192.943 2318.01 197.594 2319.57 200.695 2330.43L306.141 2642.18C310.794 2654.6 329.401 2696.48 375.922 2696.48H451.905C453.456 2696.48 455.007 2694.92 455.007 2693.37C455.007 2691.83 455.007 2691.83 309.243 2286.99C374.371 2252.87 411.587 2200.13 411.587 2117.92C411.587 2000.04 338.705 1920.94 217.753 1920.94H16.1658C14.6152 1920.94 13.0645 1922.5 13.0645 1924.04C13.0645 1925.59 14.6152 1928.69 36.3245 1975.22ZM3198.14 2693.37C3198.14 2694.92 3199.7 2696.48 3201.25 2696.48H3536.2C3540.85 2696.48 3545.5 2696.48 3547.05 2688.72L3573.4 2511.9H3564.1L3457.1 2665.46H3351.66C3345.46 2665.46 3343.91 2662.35 3343.91 2657.69V2324.22C3343.91 2319.57 3345.46 2316.46 3351.66 2316.46H3508.28C3514.48 2316.46 3519.13 2311.81 3519.13 2305.6V2266.83H3351.66C3345.46 2266.83 3343.91 2263.73 3343.91 2259.08V1959.71C3343.91 1955.06 3345.46 1951.96 3351.66 1951.96H3452.45L3550.15 2086.9H3564.1L3536.2 1928.69C3534.64 1920.94 3529.99 1920.94 3525.34 1920.94H3201.25C3199.7 1920.94 3198.14 1922.5 3198.14 1924.04C3198.14 1925.59 3198.14 1925.59 3199.7 1928.69L3222.95 1975.22V2642.18L3199.7 2688.72C3198.67 2690.78 3198.14 2692.34 3198.14 2693.37ZM2872.5 2316.46C2872.5 2318.01 2872.5 2321.11 2874.06 2324.22L3005.86 2642.18C3010.51 2654.6 3029.12 2696.48 3075.64 2696.48H3159.38L2963.99 2207.89L3064.78 2020.22L3160.92 1928.69C3163 1926.63 3164.03 1925.08 3164.03 1924.04C3164.03 1922.5 3162.48 1920.94 3160.92 1920.94H3053.94C3043.08 1920.94 3036.88 1927.15 3036.88 1938.01V2003.15L2875.61 2307.16C2874.06 2310.27 2872.5 2313.36 2872.5 2316.46ZM2720.54 2693.37C2720.54 2694.92 2722.09 2696.48 2723.63 2696.48H2888.01C2889.56 2696.48 2891.11 2694.92 2891.11 2693.37C2891.11 2691.83 2891.11 2691.83 2866.3 2642.18V1975.22C2882.84 1942.14 2891.11 1925.08 2891.11 1924.04C2891.11 1922.5 2889.56 1920.94 2888.01 1920.94H2723.63C2722.09 1920.94 2720.54 1922.5 2720.54 1924.04C2720.54 1925.59 2720.54 1925.59 2743.79 1975.22V2642.18C2728.29 2675.27 2720.54 2692.34 2720.54 2693.37ZM1225.69 1993.85V2594.11C1196.74 2659.25 1182.27 2692.34 1182.27 2693.37C1182.27 2694.92 1183.82 2696.48 1185.37 2696.48H1297.02C1298.57 2696.48 1300.12 2694.92 1300.12 2693.37C1300.12 2691.83 1300.12 2691.83 1256.7 2594.11V1998.5H1266.01L1459.85 2642.18C1462.94 2653.04 1483.1 2696.48 1529.62 2696.48H1599.4V2023.31C1625.25 1958.17 1638.17 1925.08 1638.17 1924.04C1638.17 1922.5 1636.62 1920.94 1635.06 1920.94H1526.53C1524.97 1920.94 1523.42 1922.5 1523.42 1924.04C1523.42 1925.59 1523.42 1925.59 1568.38 2023.31V2580.15L1383.86 1964.37C1376.1 1936.45 1368.36 1920.94 1332.69 1920.94H1196.23C1194.68 1920.94 1193.13 1922.5 1193.13 1924.04C1193.13 1925.59 1193.13 1925.59 1225.69 1993.85ZM580.611 2400.22L655.043 2063.64L726.373 2386.27C727.924 2392.46 724.822 2400.22 717.07 2400.22H580.611ZM465.86 2693.37C465.86 2694.92 467.411 2696.48 468.962 2696.48H571.306C572.857 2696.48 574.408 2694.92 574.408 2693.37C574.408 2691.83 572.857 2688.72 537.191 2598.76L571.306 2448.3H726.373C734.127 2448.3 738.779 2449.85 741.88 2462.27L779.097 2646.84C769.792 2675.79 765.14 2691.3 765.14 2693.37C765.14 2694.92 766.691 2696.48 768.242 2696.48H932.613C934.164 2696.48 935.714 2694.92 935.714 2693.37C935.714 2691.83 934.164 2690.27 904.701 2642.18L758.937 1961.27C752.736 1933.36 748.083 1920.94 712.418 1920.94H625.579C624.03 1920.94 622.479 1922.5 622.479 1924.04C622.479 1926.12 627.647 1946.28 637.985 1984.54L506.178 2594.11C467.411 2688.72 465.86 2691.83 465.86 2693.37ZM1669.19 2693.37C1669.19 2694.92 1670.73 2696.48 1672.28 2696.48H1779.28C1780.84 2696.48 1782.38 2694.92 1782.38 2693.37C1782.38 2691.83 1782.38 2691.83 1738.96 2594.11V2003.15H1748.27L1887.83 2688.72C1889.37 2694.92 1892.48 2696.48 1895.58 2696.48C1897.13 2696.48 1900.23 2694.92 1901.78 2688.72L2035.15 2003.15H2044.45V2642.18L2022.73 2688.72C2021.7 2690.78 2021.18 2692.34 2021.18 2693.37C2021.18 2694.92 2022.73 2696.48 2024.29 2696.48H2188.66C2190.21 2696.48 2191.76 2694.92 2191.76 2693.37C2191.76 2691.83 2191.76 2691.83 2168.49 2642.18V1975.22C2184 1942.14 2191.76 1925.08 2191.76 1924.04C2191.76 1922.5 2190.21 1920.94 2188.66 1920.94H2058.4C2022.73 1920.94 2018.08 1933.36 2011.88 1961.27L1937.45 2345.94L1866.12 1975.22C1863.02 1959.71 1842.85 1920.94 1796.34 1920.94H1681.59C1680.03 1920.94 1678.49 1922.5 1678.49 1924.04C1678.49 1925.59 1678.49 1925.59 1707.95 1998.5V2594.11C1682.11 2659.25 1669.19 2692.34 1669.19 2693.37Z" fill="#E5FF42"/>
</g>
<path d="M1688.25 910.555C1612.63 910.555 1567.61 942.97 1515.41 995.194L1495.6 1015L1473.99 1036.61L1508.21 1070.83L1529.8 1049.22L1535.21 1043.82C1598.22 980.788 1688.25 996.996 1688.25 1133.86V910.555ZM2015.91 1151.87C1990.71 1151.87 1882.68 1164.47 1882.68 1313.94V1492.23L2017.72 1357.16V1265.32C2017.72 1243.71 2035.72 1222.1 2064.53 1222.1C2084.33 1222.1 2093.33 1227.5 2120.35 1254.52L2149.16 1225.7L2116.75 1195.09C2093.33 1171.68 2060.93 1151.87 2015.91 1151.87ZM2015.91 6.5332C1990.71 6.5332 1882.68 19.139 1882.68 168.608V305.472H1924.1L2017.72 211.828V119.986C2017.72 98.3761 2035.72 76.766 2064.53 76.766C2084.33 76.766 2093.33 82.1685 2120.35 109.181L2149.16 80.3677L2116.75 49.7534C2093.33 26.3424 2060.93 6.5332 2015.91 6.5332ZM1882.68 305.472V1535.45H1924.1V305.472H1882.68ZM1850.29 996.996V570.196L2051.93 368.501C2050.13 370.303 2046.52 393.714 2046.52 409.922C2046.52 478.353 2068.13 537.781 2113.14 579.2C2161.75 626.023 2221.17 622.42 2224.77 622.42L1850.29 996.996ZM1850.29 399.116C1850.29 175.813 1715.25 175.813 1688.25 175.813C1612.63 175.813 1567.61 208.227 1515.41 260.452L1495.6 280.261L1473.99 301.871L1508.21 336.087L1529.8 314.477L1535.21 309.074C1598.22 246.045 1688.25 262.252 1688.25 399.116V1106.85C1688.25 1223.9 1677.44 1333.75 1601.83 1409.38L1600.03 1411.19L1508.21 1501.24L1542.41 1535.45L1641.44 1436.39L1688.25 1389.57C1807.07 1270.72 1850.29 1220.3 1850.29 1110.45V1063.63L1985.32 930.364C2035.72 879.941 2084.33 879.941 2107.74 879.941C2186.97 879.941 2237.37 933.965 2237.37 1079.83V1313.94C2237.37 1387.78 2237.37 1535.45 2399.4 1535.45C2433.62 1535.45 2467.82 1517.44 2500.23 1485.02L2581.25 1405.79L2547.04 1371.57L2505.63 1412.99C2494.83 1423.8 2480.43 1436.39 2455.23 1436.39C2415.62 1436.39 2399.4 1414.79 2399.4 1313.94V1079.83C2399.4 780.895 2239.17 780.895 2190.56 780.895C2170.75 780.895 2123.94 789.899 2093.33 820.513L2399.4 514.37L2365.2 481.955C2336.4 505.365 2271.58 503.565 2231.97 469.35C2190.56 435.133 2170.75 393.714 2170.75 323.481C2170.75 292.867 2181.56 238.842 2213.97 206.426L2215.77 204.625L2181.56 170.409L1850.29 501.764V399.116Z" fill="#E5FF42"/>
</svg>
