<svg fill="white" width="1068" height="244" viewBox="0 0 1068 244" xmlns="http://www.w3.org/2000/svg"><path fill="white" fill-rule="evenodd" clip-rule="evenodd" d="M390.719 0.309842C396.029 -0.575387 400.725 0.343775 402.598 4.27015C403.513 6.18786 403.671 8.69606 403.012 11.7874C402.351 14.8828 400.857 18.6307 398.378 23.0929C388.18 41.45 375.292 56.6659 358.906 71.5463C356.203 74.0008 355.188 75.2167 353.084 77.3905C351.047 79.4959 348.037 82.4406 341.584 88.1657C349.581 96.9679 354.441 108.834 354.442 123.72C354.441 176.551 291.12 244 178.239 244C126.089 244 95.4805 230.23 82.671 211.66C55.176 218.451 31.5506 222.904 8.17659 225.267L7.74861 225.312L0 215.479L0.923526 214.269C0.923526 214.269 0.993779 214.295 1.04229 214.312C1.14114 214.346 1.30421 214.397 1.53989 214.459C2.01224 214.585 2.77818 214.755 3.91116 214.92C6.17805 215.25 9.91076 215.556 15.7122 215.434C27.1931 215.192 46.741 213.272 79.0014 206.578C75.7153 200.711 75.3688 195.431 75.3688 189.139C75.3691 171.918 86.3877 153.967 105.708 140.356C125.046 126.733 152.774 117.395 186.417 117.395C199.773 117.395 215.018 118.517 228.533 122.203C241.742 125.806 253.419 131.894 259.99 141.902C286.665 125.547 314.258 106.208 332.035 91.3826C325.305 81.2225 313.435 74.9 299.169 71.7941C270.988 87.3075 237.459 101.558 210.421 101.558C205.368 101.558 201.612 100.961 199.089 99.8398C196.534 98.7043 195.126 96.7411 195.126 94.4852C195.126 90.3776 197.751 86.6859 202.043 83.1774C206.354 79.6539 212.474 76.4253 219.773 73.6882C234.377 68.2116 253.86 64.6374 273.464 64.6372C280.518 64.6372 280.732 64.637 287.421 65.1512C291.847 62.5619 302.065 55.349 313.059 47.4527C324.2 39.4508 336.106 30.7775 343.445 25.6403C363.04 11.924 374.916 2.94451 390.719 0.309842ZM333.889 94.9047C321.116 106.062 306.336 117.692 291.038 127.546L291.032 127.55C281.247 133.729 271.914 139.936 262.114 145.645C264.585 150.4 265.81 156.09 265.81 162.232C265.81 167.341 264.737 170.891 263.053 173.183C261.353 175.498 259.072 176.472 256.847 176.472C254.939 176.472 253.051 175.741 251.633 174.578C250.217 173.416 249.203 171.76 249.203 169.882C249.203 167.17 249.867 165.188 250.896 163.608C251.91 162.051 253.255 160.927 254.504 159.908C255.78 158.867 256.941 157.946 257.807 156.738C258.649 155.563 259.226 154.091 259.226 151.944C259.226 150.459 259.043 148.999 258.548 147.548C232.583 162.702 203.129 177.082 158.417 190.417C131.722 198.451 108.577 205.215 87.4913 210.458C98.3813 225.233 121.372 235.834 158.984 235.834C207.851 235.833 252.529 217.243 284.989 192.373C301.217 179.938 314.376 165.948 323.47 151.95C332.569 137.945 337.57 123.979 337.57 111.586C337.57 105.252 336.194 99.6229 333.889 94.9047ZM188.79 121.341C154.37 121.341 127.232 130.406 108.722 143.389C90.1974 156.382 80.3696 173.25 80.3693 188.875C80.3694 195.154 81.4262 199.796 84.5508 205.247C163.785 186.638 210.203 170.942 246.938 149.692C248.668 148.627 250.466 147.628 252.272 146.61C253.88 145.703 255.501 144.775 257.121 143.757C253.243 136.946 244.376 131.386 232.434 127.501C220.164 123.509 204.817 121.341 188.79 121.341ZM271.885 68.7081C253.774 68.7082 235.664 72.1573 222.101 77.1059C215.316 79.5813 209.706 82.4188 205.809 85.3603C201.872 88.332 199.937 91.0444 199.937 93.311C199.937 94.3594 200.657 95.2278 201.46 95.6092C202.642 96.1706 204.43 96.5552 206.729 96.5552C234.494 96.5549 254.908 83.4245 279.917 69.048C277.381 68.7107 276.294 68.7081 271.885 68.7081ZM390.848 18.2009C388.474 18.2012 384.957 19.3927 380.505 21.5591C376.087 23.7088 370.865 26.7588 365.119 30.348C353.597 37.5446 340.149 46.7979 326.91 55.2709C320.511 59.4547 313.198 63.861 305.403 68.2842C318.416 71.473 330.031 76.8083 338.899 85.1924L343.351 81.2095C350.07 74.7542 362.717 62.1755 373.678 49.9304C379.16 43.8059 384.208 37.778 387.881 32.6517C389.718 30.0879 391.2 27.7653 392.218 25.7795C393.249 23.7688 393.756 22.1983 393.756 21.1086C393.756 19.6208 392.716 18.2009 390.848 18.2009Z"></path><path fill="white" d="M541.94 101.204H541.952L541.95 101.206C542.67 101.22 543.195 101.621 543.523 102.162C543.835 102.677 543.994 103.343 544.072 104.038C544.229 105.441 544.082 107.277 543.771 109.128C543.458 110.991 542.968 112.929 542.409 114.553C542.129 115.365 541.829 116.111 541.518 116.736C541.214 117.347 540.874 117.896 540.5 118.269C540.282 118.488 539.782 118.887 539.131 119.385C538.459 119.9 537.574 120.558 536.544 121.312C534.483 122.82 531.826 124.72 529.091 126.643C523.644 130.47 517.811 134.435 515.778 135.519L515.479 135.679L512.735 134.764L513.114 133.963L513.12 133.951C513.124 133.944 513.128 133.932 513.135 133.918C513.148 133.889 513.17 133.847 513.196 133.791C513.249 133.68 513.327 133.516 513.427 133.306C513.628 132.885 513.917 132.276 514.273 131.533C514.987 130.043 515.969 128.004 517.042 125.809C519.182 121.43 521.701 116.391 523.169 113.856L523.191 113.818L523.22 113.779C524.849 111.607 526.143 110.41 527.667 109.229C529.149 108.081 531.811 106.052 534.513 104.33C535.862 103.471 537.239 102.676 538.496 102.105C539.705 101.555 540.913 101.162 541.909 101.204C541.919 101.204 541.93 101.203 541.94 101.204Z"></path><path fill="white" fill-rule="evenodd" clip-rule="evenodd" d="M868.524 101.204H868.537L868.535 101.206C869.254 101.221 869.777 101.622 870.105 102.162C870.417 102.677 870.578 103.343 870.656 104.038C870.813 105.441 870.666 107.277 870.355 109.128C870.042 110.991 869.552 112.929 868.993 114.553C868.714 115.365 868.411 116.111 868.1 116.736C867.796 117.347 867.456 117.896 867.083 118.269C866.864 118.488 866.366 118.887 865.715 119.385C865.043 119.9 864.159 120.558 863.129 121.312C861.068 122.82 858.41 124.72 855.675 126.643C850.228 130.47 844.392 134.436 842.361 135.519L842.064 135.679L841.742 135.573L839.318 134.764L839.698 133.963V133.959L839.719 133.918C839.732 133.889 839.752 133.846 839.778 133.791C839.831 133.68 839.91 133.516 840.01 133.306C840.21 132.885 840.501 132.277 840.857 131.533C841.571 130.043 842.553 128.004 843.626 125.809C845.766 121.43 848.285 116.391 849.753 113.856L849.775 113.818L849.804 113.779C851.433 111.607 852.727 110.41 854.252 109.229C855.733 108.081 858.396 106.052 861.097 104.33C862.447 103.471 863.824 102.676 865.08 102.105C866.289 101.555 867.497 101.162 868.494 101.204C868.504 101.204 868.514 101.203 868.524 101.204Z"></path><path fill="white" fill-rule="evenodd" clip-rule="evenodd" d="M760.838 49.1482C762.924 49.1483 764.61 49.6343 765.769 50.7536C766.934 51.8785 767.428 53.5064 767.428 55.4737C767.428 57.0525 767.313 58.6338 767.092 60.2141L767.086 60.251L767.078 60.2879C764.884 69.4864 758.879 79.315 750.399 89.2325C741.91 99.1608 730.892 109.235 718.592 118.921C694.043 138.25 664.318 156.089 639.207 168.211L629.726 180.166C635.702 176.955 646.116 172.021 657.5 166.715C671.75 160.072 687.587 152.818 698.389 147.527L698.528 147.458L698.684 147.447C707.196 146.912 713.98 146.915 721.774 145.357L722.261 145.26L724.385 148.09L723.365 148.445C708.116 153.73 688.577 161.71 672.204 168.752C656.854 175.354 644.358 181.099 640.772 183.025C640.851 183.202 640.945 183.414 641.054 183.657C641.425 184.484 641.968 185.68 642.645 187.153C644.002 190.101 645.905 194.162 648.096 198.608C652.49 207.519 658.008 217.918 662.576 224.061C665.068 227.412 668.233 228.317 671.285 228.165C673.781 228.04 676.191 227.2 678.047 226.373C677.481 224.82 677.178 223.063 677.178 221.094C677.178 215.548 679.665 208.479 684.108 201.043C688.562 193.588 695.027 185.688 703.092 178.469C719.221 164.033 741.822 152.251 767.651 152.251C770.214 152.251 772.171 152.651 773.51 153.492C774.909 154.372 775.559 155.689 775.559 157.258C775.559 158.494 775.118 159.839 774.349 161.229C773.577 162.625 772.447 164.113 771.005 165.646C768.121 168.711 763.93 172.018 758.662 175.209C748.171 181.562 733.327 187.505 715.794 190.177C708.763 197.092 702.464 204.116 697.918 210.221C695.625 213.299 693.789 216.13 692.53 218.584C691.26 221.059 690.622 223.067 690.622 224.524C690.622 227.037 691.615 228.621 693.247 229.623C694.943 230.664 697.408 231.124 700.387 231.124C732.133 231.123 758.614 209.126 787.064 177.955C787.548 177.418 788.041 176.877 788.542 176.328L788.907 175.927C789.372 175.413 789.839 174.898 790.305 174.379L791.282 173.29L791.29 173.323C797.585 166.485 805.001 158.702 813.733 149.831L813.965 149.598H814.294C820.203 149.598 826.184 149.269 830.69 148.94C832.943 148.776 834.825 148.611 836.144 148.488C836.802 148.426 837.32 148.374 837.673 148.338C837.85 148.32 837.986 148.307 838.077 148.297L838.133 148.292L838.179 148.287C838.19 148.286 838.2 148.284 838.206 148.283H838.214L838.757 148.224L839.002 148.713L840.088 150.886L839.557 151.279C832.476 156.524 818.524 168.763 804.746 181.882C790.961 195.008 777.426 208.943 771.143 217.582L771.126 217.603C770.239 218.743 769.284 220.273 768.552 221.895C767.816 223.527 767.336 225.191 767.336 226.617C767.336 227.93 767.692 229.014 768.48 229.776C769.273 230.542 770.628 231.105 772.879 231.105C784.101 231.105 799.273 225.874 817.517 217.838C835.742 209.811 856.857 199.071 879.988 188.142C926.187 166.312 980.269 143.805 1034.31 141.339C1039.43 141.105 1046.05 141.117 1051.38 141.186C1054.05 141.22 1056.4 141.268 1058.08 141.308C1058.92 141.329 1059.6 141.347 1060.06 141.36C1060.29 141.366 1060.47 141.372 1060.59 141.376L1060.73 141.38H1060.78L1061.25 141.396L1061.46 141.816L1067.62 154.133L1067.92 154.733L1067.37 155.124L1066.6 155.673L1066.24 155.931L1065.84 155.757C1053.6 150.551 1041.15 150.114 1026.64 150.114C982.126 150.114 930.245 171.467 883.303 192.909C859.867 203.614 837.652 214.344 818.285 222.388C798.942 230.422 782.287 235.844 769.977 235.844C766.443 235.844 763.126 235.029 760.687 232.877C758.23 230.708 756.794 227.299 756.794 222.396C756.794 220.757 757.22 218.644 758.526 215.698C738.611 227.796 718.564 235.86 696.429 235.86C691.204 235.86 686.41 234.859 682.9 232.496C682.378 232.144 681.889 231.759 681.429 231.349C681.385 231.367 681.338 231.388 681.288 231.409C680.889 231.569 680.31 231.797 679.589 232.066C678.147 232.603 676.131 233.305 673.834 233.966C669.275 235.279 663.482 236.466 658.88 235.776C653.781 235.012 651.554 231.834 649.619 229.073L649.591 229.033L649.507 228.914C648.742 227.823 647.755 226.005 646.974 224.497C646.58 223.736 645.835 222.234 645.586 221.729L639.744 210.042L629.532 187.71C628.547 188.162 627.163 188.851 625.737 189.647C623.921 190.662 622.092 191.819 620.931 192.85C619.544 194.082 616.802 197.133 615.431 198.903C604.257 213.336 590.723 228.089 571.493 232.66C563.428 235.008 557.268 235.932 550.739 235.932C547.204 235.932 543.888 235.117 541.449 232.965C538.991 230.796 537.556 227.388 537.556 222.484C537.556 220.999 538.003 218.899 538.655 216.689C539.437 214.046 541.186 210.271 542.583 207.937C550.557 193.564 563.876 182.193 574.157 173.931C577.056 171.601 579.835 169.478 582.364 167.55L582.708 167.288C585.104 165.462 587.263 163.816 589.091 162.328C591.011 160.766 592.533 159.402 593.572 158.21C594.597 157.033 595.032 156.153 595.062 155.507C594.979 155.472 594.812 155.43 594.534 155.43C593.051 155.43 591.047 155.873 588.581 156.738C586.129 157.598 583.275 158.856 580.108 160.434C573.774 163.591 566.24 168.01 558.254 173.048C542.308 183.109 524.612 195.605 511.171 205.355C504.052 213 496.332 221.762 486.592 231.503L486.361 231.734C486.234 231.719 472.624 230.055 461.696 232.711C454.702 234.702 448.925 235.844 443.278 235.844C439.744 235.844 436.427 235.029 433.988 232.877C433.033 232.034 432.234 231.003 431.612 229.77L426.108 231.378C416.955 234.208 408.822 235.87 402.002 235.871C398.468 235.87 395.151 235.055 392.712 232.903C390.254 230.735 388.819 227.324 388.819 222.421C388.819 219.118 389.549 214.972 396.768 204.874C403.364 194.778 413.651 184.633 422.742 176.157C428.056 171.201 432.948 166.827 436.533 163.309C438.323 161.553 439.76 160.035 440.745 158.79C441.238 158.167 441.603 157.628 441.841 157.178C442.055 156.774 442.293 156.431 442.154 156.31C442.015 156.19 441.841 156.208 441.628 156.234C440.549 156.367 437.785 156.724 435.03 157.666C432.29 158.603 429.084 159.966 425.531 161.667C418.424 165.068 409.974 169.795 401.146 175.082C383.516 185.64 364.431 198.404 351.644 207.235C344.889 213.719 334.783 222.815 326.265 227.688C317.741 232.563 308.894 235.87 301.045 235.871H301.032C300.519 235.871 299.733 235.871 299.069 235.76C298.74 235.705 298.365 235.61 298.051 235.426C297.76 235.255 297.447 234.953 297.373 234.496L297.357 234.292L297.365 234.157C297.399 233.845 297.545 233.538 297.734 233.274C297.955 232.964 298.279 232.649 298.717 232.35C327.284 210.365 371.922 162.711 411.694 123.071C431.561 103.27 450.666 84.8249 466.823 71.3272C474.9 64.5795 482.26 59.0521 488.623 55.2074C494.956 51.3817 500.421 49.1482 504.673 49.1482C506.759 49.1483 508.445 49.6342 509.604 50.7536C510.769 51.8787 511.263 53.5062 511.263 55.4737C511.263 57.8362 510.495 60.7447 509.053 64.0659C507.607 67.3984 505.457 71.1997 502.636 75.3612C496.992 83.6852 488.627 93.5022 477.717 103.982C455.922 124.919 423.922 148.541 383.036 168.214C374.386 178.703 367.053 188.138 361.813 195.473L361.789 195.508C361.776 195.524 361.761 195.54 361.748 195.557C374.485 187.153 390.362 176.909 404.963 168.451C413.084 163.747 420.827 159.586 427.423 156.599C430.72 155.105 433.745 153.9 436.394 153.066C439.032 152.236 441.346 151.76 443.211 151.76C445.273 151.76 447.137 152.17 448.494 153.294C449.879 154.442 450.593 156.214 450.593 158.614C450.592 169.384 443.212 178.266 436.394 184.984C430.712 190.583 423.891 196.182 418.292 201.221C414.5 204.634 406.578 212.92 403.167 217.609L403.159 217.617L403.151 217.629C402.264 218.769 401.308 220.298 400.577 221.919C399.841 223.551 399.361 225.216 399.361 226.641C399.361 227.955 399.716 229.04 400.505 229.803C401.298 230.569 402.653 231.132 404.904 231.132C410.784 231.132 418.101 229.632 426.622 226.99L426.821 226.926L430.376 225.9C430.191 224.829 430.095 223.662 430.095 222.396C430.095 218.96 431.952 213.438 439.908 202.544C447.888 191.616 462.098 175.163 487.034 149.831L487.266 149.598H487.595C493.504 149.598 499.485 149.269 503.991 148.94C506.244 148.776 508.126 148.611 509.445 148.488C510.104 148.426 510.623 148.374 510.976 148.338C511.152 148.32 511.967 148.233 512.057 148.224L512.303 148.713L513.389 150.886L512.858 151.279C505.777 156.524 491.825 168.763 478.047 181.882C464.262 195.008 450.727 208.943 444.443 217.582L444.427 217.603C443.54 218.743 442.585 220.273 441.853 221.895C441.117 223.527 440.637 225.191 440.637 226.617C440.637 227.775 440.944 228.755 441.714 229.504C442.501 230.269 443.88 230.901 446.25 231.11C450.116 231.449 458.859 231.253 469.024 223.011L469.035 223.019C478.89 215.12 492.824 203.354 505.634 191.652C514.397 183.646 522.62 175.687 528.646 169.029C531.661 165.698 534.112 162.709 535.803 160.215C536.649 158.968 537.295 157.859 537.726 156.906C538.162 155.941 538.352 155.191 538.352 154.643C538.352 154.431 538.288 154.333 538.225 154.279C538.149 154.212 537.961 154.111 537.556 154.111C537.47 154.111 537.226 154.159 536.77 154.338C536.34 154.507 535.797 154.762 535.148 155.102C533.85 155.781 532.179 156.766 530.233 157.981L529.17 156.867L531.869 152.96L532.033 152.872C534.855 151.316 537.445 150.051 539.733 149.174C542.009 148.301 544.042 147.792 545.732 147.791C547.759 147.791 549.257 148.451 550.229 149.626C551.179 150.774 551.532 152.299 551.532 153.853C551.531 155.478 550.962 157.403 549.799 159.728C548.633 162.061 546.839 164.856 544.32 168.238C540.052 173.966 533.655 181.434 524.586 191.279C536.541 182.867 550.05 173.697 562.305 166.237C569.52 161.845 576.316 158.038 582.11 155.325C587.866 152.631 592.757 150.958 596.115 150.957C598.176 150.957 600.042 151.365 601.398 152.489C602.783 153.637 603.497 155.409 603.497 157.809C603.497 163.161 601.388 168.472 597.962 173.716C594.535 178.961 589.753 184.193 584.328 189.403C578.917 194.6 561.161 208.976 561.06 209.058C561.06 209.058 552.101 216.891 549.637 221.403C548.725 223.075 548.098 225.279 548.098 226.705C548.098 228.156 548.453 229.104 549.242 229.867C550.035 230.632 551.165 231.497 553.221 231.32C554.964 231.171 557.445 229.801 560.222 227.817C564.508 224.38 569.076 220.483 573.874 216.21C574.684 215.466 575.456 214.757 576.176 214.097L576.174 214.148C602.907 190.051 636.335 155.077 667.857 123.493C687.724 103.587 706.829 85.0368 722.986 71.4603C731.063 64.6733 738.422 59.1121 744.786 55.2443C751.118 51.3958 756.584 49.1482 760.838 49.1482ZM757.953 158.556C761.751 156.855 765.044 155.935 767.651 155.935C769.199 155.935 770.157 156.132 770.704 156.431C770.962 156.572 771.11 156.726 771.2 156.879C771.29 157.034 771.349 157.238 771.349 157.522C771.349 158.148 771.035 159.034 770.282 160.164C769.543 161.275 768.435 162.54 766.994 163.909C764.112 166.645 759.959 169.728 754.916 172.741C745.453 178.395 732.938 183.754 719.984 186.123C728.279 178.475 737.249 171.171 745.501 165.66C749.946 162.691 754.169 160.251 757.953 158.556ZM754.069 55.4102C757.196 54.0542 759.909 53.3583 762.157 53.3583C762.248 53.3585 762.343 53.3879 762.45 53.5549C762.574 53.7496 762.689 54.1151 762.689 54.6832C762.689 55.6373 762.412 57.0364 761.772 58.8647C761.136 60.6816 760.158 62.8793 758.795 65.4133C758.073 66.7549 757.242 68.1907 756.301 69.7115C743.907 89.7232 712.114 124.491 648.485 159.304C647.253 159.978 646.007 160.651 644.75 161.325C659.372 143.724 676.724 123.901 693.824 106.081C711.935 87.2077 729.725 70.6237 743.668 61.2913C747.459 58.754 750.948 56.763 754.069 55.4102ZM496.296 56.1474C500.101 54.3113 502.8 53.3586 505.431 53.3583C505.718 53.3583 506.089 53.3584 506.283 53.5549C506.527 53.8035 506.526 54.3196 506.525 54.8502L506.525 54.9617C506.525 56.1319 506.109 57.6753 505.14 60.1118C504.179 62.5302 502.696 65.495 500.617 68.9272C496.459 75.7911 489.941 84.4933 480.527 94.401C462.18 113.707 432.849 137.57 388.592 161.321C407.426 138.65 430.786 112.295 452.301 91.2844C463.549 80.2997 474.276 70.7914 483.576 64.0352C488.225 60.6572 492.502 57.9781 496.296 56.1474ZM439.924 227.595L439.923 227.587L439.92 227.573L439.919 227.566L439.916 227.542C439.919 227.566 439.924 227.589 439.929 227.613L439.93 227.618L439.931 227.624L439.929 227.613L439.926 227.602L439.924 227.595Z"></path><path fill="white" fill-rule="evenodd" clip-rule="evenodd" d="M439.92 227.573L439.923 227.587L439.919 227.566L439.92 227.573Z"></path></svg>