<svg xmlns="http://www.w3.org/2000/svg" viewBox="0 0 86 16" fill="white" width="100%"><path d="M43.5318 7.79009H40.2499V3.6123H43.5318C45.0615 3.6123 45.9385 4.44134 45.9385 5.70119C45.9385 6.96105 45.067 7.79009 43.5318 7.79009ZM46.5548 9.99664C48.3088 9.22914 49.4884 7.7032 49.4884 5.70119C49.4884 2.76878 47.3005 0.855469 44.1481 0.855469H36.7236V15.6569H40.2517V10.5578H43.0851L46.0844 15.666H49.968L46.5548 9.99664Z" fill="white"></path><path d="M59.6165 12.8784H57.3064V3.6123H59.6165C62.1782 3.6123 63.9231 5.44777 63.9231 8.24081C63.9231 11.0338 62.1782 12.8784 59.6165 12.8784ZM67.5459 8.24081C67.5459 3.98157 64.3971 0.855469 60.0121 0.855469H53.7783V15.6569H59.7824C59.8316 15.6569 60.0249 15.6569 60.0741 15.6569C60.0942 15.6569 60.0541 15.6569 60.0741 15.6569C64.4227 15.6044 67.5459 12.4892 67.5459 8.24081Z" fill="white"></path><path d="M23.262 10.1596L25.6651 4.37618H25.727L28.1301 10.1596H23.262ZM27.8202 0.855469H23.7433L17.3618 15.6569H20.8917L22.0787 12.8947H29.3062L30.4949 15.6569H34.1907L27.8202 0.855469Z" fill="white"></path><path d="M74.7498 10.1596L77.1565 4.37618H77.2185L79.6216 10.1596H74.7498ZM79.308 0.855469H75.2311L68.8496 15.6569H72.3777L73.5664 12.8947H80.8031L81.99 15.6569H85.6858L79.308 0.855469Z" fill="white"></path><path d="M13.5567 0.855469L9.07137 11.7326H9.00756L4.52411 0.855469H0.583984L6.96184 15.6569H11.0332L17.4111 0.855469H13.5567Z" fill="white"></path></svg>